<svg xmlns="http://www.w3.org/2000/svg" width="220" height="45" viewBox="0 0 220 45" fill="none"><path d="M139.545 8.38568C139.545 9.22116 140.392 9.8792 141.467 9.8792C142.46 9.8792 143.275 9.34932 143.275 8.59393C143.275 6.65062 137.41 7.51815 137.41 3.74244C137.41 1.70178 139.169 0.384471 141.384 0.384471C143.6 0.384471 145.408 1.81392 145.408 3.7104H143.095C143.095 2.93899 142.345 2.36105 141.352 2.36105C140.472 2.36105 139.723 2.82685 139.723 3.56622C139.723 5.54157 145.588 4.49783 145.588 8.33762C145.588 10.4744 143.762 11.8558 141.449 11.8558C139.137 11.8558 137.231 10.3462 137.231 8.38568H139.545Z" fill="#000033"></path><path d="M150.17 0.57794L153.575 6.55327L156.996 0.57794H159.765V11.6623H157.517V3.83856L154.211 9.66971H152.923L149.616 3.83856V11.6623H147.368V0.57794H150.17Z" fill="#000033"></path><path d="M167.825 0.57794L172.142 11.6623H169.682L168.884 9.50952H164.047L163.265 11.6623H160.837L165.17 0.57794H167.825ZM168.12 7.46886L166.474 3.01909L164.813 7.46886H168.12Z" fill="#000033"></path><path d="M173.208 0.57794H178.208C180.376 0.57794 182.02 2.13554 182.02 4.20824C182.02 5.79788 181.01 7.06713 179.527 7.51815L182.346 11.6623H179.56L176.986 7.71039H175.455V11.6623H173.208V0.57794ZM175.455 2.66666V5.7831H178.16C179.04 5.7831 179.708 5.10781 179.708 4.22426C179.708 3.34072 179.04 2.66666 178.16 2.66666H175.455Z" fill="#000033"></path><path d="M185.935 2.66666H182.873V0.57794H191.246V2.66666H188.183V11.6635H185.935V2.66666Z" fill="#000033"></path><path d="M137.817 16.6395H145.213V18.7282H140.065V21.1053H144.674V23.194H140.065V25.6364H145.293V27.7251H137.816V16.6407L137.817 16.6395Z" fill="#000033"></path><path d="M147.169 16.6395H149.972L153.377 22.6148L156.797 16.6395H159.566V27.7239H157.318V19.9001L154.011 25.7313H152.724L149.417 19.9001V27.7239H147.169V16.6395Z" fill="#000033"></path><path d="M161.889 16.6395H167.004C169.187 16.6395 170.865 18.2291 170.865 20.3351C170.865 22.4411 169.187 24.0295 167.004 24.0295H164.137V27.7251H161.889V16.6395ZM164.137 18.7282V21.942H166.954C167.866 21.942 168.551 21.2519 168.551 20.3351C168.551 19.4183 167.866 18.7282 166.954 18.7282H164.137Z" fill="#000033"></path><path d="M172.183 16.6395H174.431V25.6364H179.171V27.7251H172.184V16.6407L172.183 16.6395Z" fill="#000033"></path><path d="M179.673 22.1811C179.673 18.9205 182.215 16.446 185.602 16.446C188.989 16.446 191.53 18.9205 191.53 22.1811C191.53 25.4417 188.974 27.9161 185.602 27.9161C182.23 27.9161 179.673 25.4417 179.673 22.1811ZM189.219 22.1811C189.219 20.1244 187.656 18.5828 185.603 18.5828C183.55 18.5828 181.971 20.1244 181.971 22.1811C181.971 24.2377 183.535 25.7793 185.603 25.7793C187.671 25.7793 189.219 24.2365 189.219 22.1811Z" fill="#000033"></path><path d="M195.541 23.836L191.208 16.6395H193.766L196.681 21.5711L199.597 16.6395H202.122L197.789 23.836V27.7239H195.541V23.836Z" fill="#000033"></path><path d="M203.173 16.6395H210.568V18.7282H205.42V21.1053H210.03V23.194H205.42V25.6364H210.648V27.7251H203.171V16.6407L203.173 16.6395Z" fill="#000033"></path><path d="M212.525 16.6395H219.92V18.7282H214.772V21.1053H219.382V23.194H214.772V25.6364H220V27.7251H212.523V16.6407L212.525 16.6395Z" fill="#000033"></path><path d="M137.817 32.6998H145.213V34.7885H140.065V37.1656H144.674V39.2543H140.065V41.6967H145.293V43.7854H137.816V32.7011L137.817 32.6998Z" fill="#000033"></path><path d="M150.365 39.8976L146.034 32.7011H148.59L151.506 37.6327L154.421 32.7011H156.946L152.614 39.8976V43.7854H150.367V39.8976H150.365Z" fill="#000033"></path><path d="M157.998 32.6998H165.392V34.7885H160.245V37.1656H164.854V39.2543H160.245V41.6967H165.474V43.7854H157.997V32.7011L157.998 32.6998Z" fill="#000033"></path><path d="M166.539 38.2426C166.539 34.982 169.081 32.5076 172.468 32.5076C175.318 32.5076 177.599 34.3067 178.12 36.8292H175.743C175.287 35.5279 173.998 34.6444 172.468 34.6444C170.399 34.6444 168.836 36.186 168.836 38.2426C168.836 40.2993 170.4 41.8409 172.468 41.8409C173.998 41.8409 175.287 40.9573 175.743 39.6561H178.12C177.599 42.1785 175.318 43.9777 172.468 43.9777C169.079 43.9777 166.539 41.5032 166.539 38.2426Z" fill="#000033"></path><path d="M185.147 32.6998L189.464 43.7842H187.004L186.205 41.6314H181.368L180.585 43.7842H178.159L182.491 32.6998H185.147ZM185.441 39.5907L183.795 35.141L182.133 39.5907H185.441Z" fill="#000033"></path><path d="M190.528 32.6998H195.53C197.696 32.6998 199.341 34.2574 199.341 36.3301C199.341 37.9198 198.331 39.189 196.849 39.64L199.667 43.7842H196.881L194.308 39.8323H192.777V43.7842H190.53V32.6998H190.528ZM192.776 34.7885V37.905H195.48C196.359 37.905 197.028 37.2297 197.028 36.3461C197.028 35.4626 196.359 34.7885 195.48 34.7885H192.776Z" fill="#000033"></path><path d="M201.096 32.6998H208.49V34.7885H203.343V37.1656H207.952V39.2543H203.343V41.6967H208.571V43.7854H201.095V32.7011L201.096 32.6998Z" fill="#000033"></path><path d="M5.7274 11.6303C5.7274 7.3099 9.77056 4.40294 15.8353 4.40294C21.9 4.40294 26.3643 7.47625 26.3643 12.1293H31.4182C31.4182 4.81822 25.2698 0 15.919 0C6.56826 0 0.673444 4.81822 0.673444 12.1293C0.673444 26.9993 27.0377 21.5169 27.0377 32.3992C27.0377 36.8847 22.7422 39.9592 16.2564 39.9592C9.77056 39.9592 5.05395 36.7195 5.05395 31.735H0C0 39.295 6.40209 44.3621 16.2564 44.3621C26.1106 44.3621 32.0917 39.3776 32.0917 31.9013C32.0917 16.865 5.7274 22.3474 5.7274 11.6303Z" fill="#000033"></path><path d="M129.982 24.1749C130.067 23.5933 130.151 22.8453 130.151 22.1811C130.151 9.55388 120.38 0 107.409 0C95.3254 0 85.9822 8.39923 84.8627 19.8558H79.8737C78.7555 8.39923 69.4109 0 57.3277 0C44.3561 0 34.5855 9.55388 34.5855 22.1811C34.5855 22.8453 34.6692 23.5933 34.7542 24.1749H74.8485C73.9214 33.3135 66.6784 39.8766 56.9916 39.8766C49.7474 39.8766 43.5152 36.2217 40.8189 30.738H35.3439C38.6287 38.8797 47.0524 44.3621 57.0753 44.3621C69.5134 44.3621 78.9279 35.8002 79.8987 24.1749H84.8402C85.811 35.8002 95.2242 44.3621 107.664 44.3621C117.687 44.3621 126.11 38.8797 129.395 30.738H123.92C121.225 36.2217 114.991 39.8766 107.747 39.8766C98.0604 39.8766 90.8162 33.3135 89.8904 24.1749H129.985H129.982ZM39.7232 19.8545C40.5653 11.3814 47.6408 4.4855 57.3277 4.4855C67.0145 4.4855 73.7527 10.8823 74.8472 19.8545H39.7232ZM107.409 4.4855C117.096 4.4855 124.171 11.3814 125.013 19.8545H89.8891C90.9836 10.8823 98.1441 4.4855 107.409 4.4855Z" fill="#000033"></path></svg>

