<svg xmlns="http://www.w3.org/2000/svg" viewBox="0 0 283.5 70.9"><path fill="#000000" d="M69.1 1.9H46.5v35.9c0 11.9-8.1 15-12.9 15-4.8-.1-10.8-3.1-10.8-12V1.9H0v40.3c0 17.6 5.6 28.7 24.8 28.7 7.7 0 18-4.3 22.1-11.1h.3V69h21.9V1.9zm214.4 67l-24.1-35.3 21.1-31.7h-23.6l-9.5 16-9.4-16h-24.8l22 32.1-24 34.9h24.9l11.2-18.2 11.4 18.2"></path><path fill="#000000" fill-rule="evenodd" clip-rule="evenodd" d="M145.1 1.9h-23l-12.8 44.3h-.2L96.5 1.9H72.9l23 67H122l23.1-67"></path><path fill="#000000" d="M164.4 40.8c.4 9.2 5.9 15.2 15.7 15.2 5.5 0 11.7-2.5 13.8-7.4h21.5c-4.2 15.5-19.9 22.2-35.6 22.2-22.8 0-37.6-13.2-37.6-35.6 0-20.5 16.4-35.2 37.1-35.2 25.1 0 38.4 18.1 37.4 40.8h-52.3zm29.3-12.3c-.4-7.5-6.7-13.7-14.4-13.7-8.1 0-13.5 5.6-14.9 13.7h29.3z"></path></svg>

